<?xml version="1.0" encoding="utf-8"?>
<!-- Uploaded to: SVG Repo, www.svgrepo.com, Generator: SVG Repo Mixer Tools -->
<svg width="800px" height="800px" viewBox="0 0 1024 1024" class="icon"  version="1.1" xmlns="http://www.w3.org/2000/svg"><path d="M38.31021 15.962588h946.58145c12.77007 0 22.347623 10.375682 22.347623 22.347622v946.58145c0 12.77007-10.375682 22.347623-22.347623 22.347623H38.31021c-12.77007 0-22.347623-10.375682-22.347622-22.347623V38.31021C15.962588 26.33827 26.33827 15.962588 38.31021 15.962588z" fill="#7CB0F1" /><path d="M984.89166 1024H38.31021c-21.549493 0-38.31021-17.558846-38.31021-38.31021V38.31021C0 17.558846 17.558846 0 38.31021 0h946.58145c21.549493 0 38.31021 17.558846 38.310211 38.31021v946.58145c0.798129 21.549493-16.760717 39.10834-38.310211 39.10834zM38.31021 31.925175c-3.192518 0-6.385035 3.192518-6.385035 6.385035v946.58145c0 3.990647 3.192518 6.385035 6.385035 6.385035h946.58145c3.990647 0 6.385035-3.192518 6.385035-6.385035V38.31021c0-3.990647-3.192518-6.385035-6.385035-6.385035H38.31021z" fill="#131313" /><path d="M79.812938 77.41855h865.970382v865.970382H79.812938z" fill="#F3F3F3" /><path d="M945.78332 960.149649H79.812938c-8.779423 0-15.962588-7.183164-15.962587-15.962587V77.41855c0-8.779423 7.183164-15.962588 15.962587-15.962587h865.970382c8.779423 0 15.962588 7.183164 15.962588 15.962587v865.970382c0 9.577553-7.183164 16.760717-15.962588 16.760717z m-850.007794-31.925175h834.045207V93.381138H95.775526v834.843336z" fill="#131313" /><path d="M547.516758 247.420109h-10.375682v240.236945h241.035074V478.877631c0.798129-127.700701-102.958691-231.457521-230.659392-231.457522z" fill="#FB7E7E" /><path d="M778.974279 503.619641H537.939205c-8.779423 0-15.962588-7.183164-15.962588-15.962587V247.420109c0-8.779423 7.183164-15.962588 15.962588-15.962588h10.375682c136.480125 0 247.420109 111.738114 246.62198 248.218239v8.779423c0 7.981294-7.183164 15.164458-15.962588 15.164458z m-225.072486-31.925175h209.109898c-3.990647-113.334373-95.775526-205.119252-209.109898-208.311769v208.311769z" fill="#131313" /><path d="M484.464536 273.758379C341.599376 280.143414 231.457521 400.660951 237.842557 542.727981c2.394388 63.052221 28.732658 123.710055 72.629773 168.4053l173.992206-173.992205v-263.382697z" fill="#7CB0F1" /><path d="M310.47233 727.893998c-3.990647 0-8.779423-1.596259-11.173811-4.788776-47.089634-47.887763-74.226033-111.738114-77.41855-179.579111-6.385035-150.846454 110.939984-279.345284 261.786438-285.73032 4.788776 0 8.779423 1.596259 11.971941 4.788776 3.192518 3.192518 4.788776 7.183164 4.788776 11.173812v264.180826c0 3.990647-1.596259 7.981294-4.788776 11.173811L321.646142 723.105222c-2.394388 3.192518-6.385035 4.788776-11.173812 4.788776z m158.029619-436.576773C343.195635 305.683554 248.218239 414.22915 253.805144 541.929852c2.394388 54.272798 22.347623 105.353079 57.465316 146.057677l157.231489-157.231488v-239.438816z" fill="#131313" /><path d="M495.638348 790.14809c138.874513 0 252.208885-110.141855 257.795791-248.218238H484.464536v-3.192518L310.47233 711.931411C359.158223 761.415433 425.402962 790.14809 495.638348 790.14809z" fill="#FFD28B" /><path d="M495.638348 806.110678c-73.427903 0-145.259548-30.328917-196.339829-83.005456-6.385035-6.385035-5.586906-15.962588 0-22.347623L473.290725 526.765394c4.788776-4.788776 11.173811-5.586906 17.558846-3.192518 1.596259 0.798129 2.394388 1.596259 3.990647 2.394388h259.39205c3.990647 0 8.779423 1.596259 11.173812 4.788777s4.788776 7.183164 4.788776 11.97194c-6.385035 147.653936-126.902572 263.382697-274.556508 263.382697zM333.618083 711.133281c43.897116 39.906469 102.160561 62.254092 162.020265 63.052222 125.306313 0 227.466875-94.179267 241.035074-216.293063H487.657054L333.618083 711.133281z" fill="#131313" /><path d="M331.223694 197.137958H178.780982c-8.779423 0-15.962588-7.183164-15.962588-15.962588s7.183164-15.962588 15.962588-15.962587h152.442712c8.779423 0 15.962588 7.183164 15.962588 15.962587s-7.183164 15.962588-15.962588 15.962588z" fill="#131313" /><path d="M331.223694 263.382697H214.696804c-8.779423 0-15.962588-7.183164-15.962587-15.962588s7.183164-15.962588 15.962587-15.962588h116.52689c8.779423 0 15.962588 7.183164 15.962588 15.962588s-7.183164 15.962588-15.962588 15.962588z" fill="#131313" /><path d="M844.420889 806.110678H682.400624c-8.779423 0-15.962588-7.183164-15.962588-15.962588s7.183164-15.962588 15.962588-15.962587h162.020265c8.779423 0 15.962588 7.183164 15.962587 15.962587s-7.183164 15.962588-15.962587 15.962588z" fill="#131313" /><path d="M814.091972 868.36477H682.400624c-8.779423 0-15.962588-7.183164-15.962588-15.962588s7.183164-15.962588 15.962588-15.962587H814.091972c8.779423 0 15.962588 7.183164 15.962588 15.962587s-7.183164 15.962588-15.962588 15.962588z" fill="#131313" /><path d="M856.392829 197.137958H682.400624c-8.779423 0-15.962588-7.183164-15.962588-15.962588s7.183164-15.962588 15.962588-15.962587h173.992205c8.779423 0 15.962588 7.183164 15.962588 15.962587s-7.183164 15.962588-15.962588 15.962588z" fill="#131313" /></svg>