<?xml version="1.0" encoding="iso-8859-1"?>
<!-- Uploaded to: SVG Repo, www.svgrepo.com, Generator: SVG Repo Mixer Tools -->
<svg height="800px" width="800px" version="1.1" id="Layer_1" xmlns="http://www.w3.org/2000/svg" xmlns:xlink="http://www.w3.org/1999/xlink" 
	 viewBox="0 0 511.998 511.998" xml:space="preserve">
<circle style="fill:#FF5B62;" cx="255.999" cy="255.999" r="255.999"/>
<g>
	<path style="fill:#FEFEFE;" d="M235.821,202.028c12.458,4.293,24.919,3.935,37.377,0c10.279,0,10.279,30.482,0,30.482h-37.377
		C225.543,232.51,226.102,198.681,235.821,202.028z"/>
	<path style="fill:#FEFEFE;" d="M235.821,178.078c12.458,4.291,24.919,3.935,37.377,0c10.279,0,10.279,30.482,0,30.482h-37.377
		C225.543,208.561,226.102,174.732,235.821,178.078z"/>
	<path style="fill:#FEFEFE;" d="M235.821,154.127c12.458,4.293,24.919,3.935,37.377,0c10.279,0,10.279,30.482,0,30.482h-37.377
		C225.543,184.61,226.102,150.781,235.821,154.127z"/>
	<path style="fill:#FEFEFE;" d="M235.821,130.178c12.458,4.291,24.919,3.935,37.377,0c10.279,0,10.279,30.482,0,30.482h-37.377
		C225.543,160.661,226.102,126.832,235.821,130.178z"/>
	<path style="fill:#FEFEFE;" d="M235.821,106.229c12.458,4.293,24.919,3.935,37.377,0c10.279,0,10.279,30.482,0,30.482h-37.377
		C225.543,136.711,226.102,102.883,235.821,106.229z"/>
	<path style="fill:#FEFEFE;" d="M235.821,82.28c12.458,4.291,24.919,3.935,37.377,0c10.279,0,10.279,30.482,0,30.482h-37.377
		C225.543,112.762,226.102,78.934,235.821,82.28z"/>
	<path style="fill:#FEFEFE;" d="M235.821,58.332c12.458,4.293,24.919,3.935,37.377,0c10.279,0,10.279,30.482,0,30.482h-37.377
		C225.543,88.813,226.102,54.984,235.821,58.332z"/>
</g>
<path style="fill:#EEF3F7;" d="M280.456,68.154c-1.331,1.672-3.043,2.697-5.14,2.697H233.68c-2.084,0-3.766-1.12-5.06-2.932
	c0.364-2.765,1.054-5.252,2.064-7.033c1.224,2.414,2.93,3.977,5.137,3.977h37.377c2.088,0,3.753-1.259,4.994-3.266
	c1.074,1.736,1.827,4.033,2.267,6.557H280.456z"/>
<g>
	<path style="fill:#FEFEFE;" d="M298.906,247.295c13.851,32.464,45.9,27.212,41.91,39.914c-3.991,12.702-7.62,22.498-22.496,13.063
		c-12.885-8.165-49.527-18.73-53.765-39.41H251.39c-4.238,20.68-40.88,31.245-53.765,39.41
		c-14.876,9.435-18.508-0.361-22.498-13.063c-3.991-12.702,28.061-7.45,41.91-39.914c0.93-2.179,2.227-4.017,3.773-5.519
		c-0.379-11.077,2.937-22.441,9.622-20.137c16.03,5.523,32.065,5.062,48.094,0c5.821,0,9.079,7.596,9.776,16.101
		C292.833,239.156,296.803,242.367,298.906,247.295L298.906,247.295z"/>
	<path style="fill:#FEFEFE;" d="M235.821,34.383c12.458,4.291,24.919,3.935,37.377,0c10.279,0,10.279,30.482,0,30.482h-37.377
		C225.543,64.864,226.102,31.035,235.821,34.383z"/>
</g>
<g>
	<path style="fill:#EEF3F7;" d="M280.456,92.103c-1.331,1.672-3.043,2.697-5.14,2.697H233.68c-2.084,0-3.766-1.122-5.06-2.932
		c0.364-2.765,1.054-5.252,2.064-7.033c1.224,2.414,2.93,3.977,5.137,3.977h37.377c2.088,0,3.753-1.259,4.994-3.266
		c1.074,1.736,1.827,4.033,2.267,6.557H280.456z"/>
	<path style="fill:#EEF3F7;" d="M280.456,116.05c-1.331,1.672-3.043,2.697-5.14,2.697H233.68c-2.084,0-3.766-1.122-5.06-2.932
		c0.364-2.765,1.054-5.252,2.064-7.033c1.224,2.414,2.93,3.977,5.137,3.977h37.377c2.088,0,3.753-1.259,4.994-3.266
		c1.074,1.736,1.827,4.033,2.267,6.557H280.456z"/>
	<path style="fill:#EEF3F7;" d="M280.456,139.999c-1.331,1.672-3.043,2.697-5.14,2.697H233.68c-2.084,0-3.766-1.122-5.06-2.932
		c0.364-2.765,1.054-5.252,2.064-7.033c1.224,2.414,2.93,3.977,5.137,3.977h37.377c2.088,0,3.753-1.259,4.994-3.266
		c1.074,1.736,1.827,4.033,2.267,6.557H280.456z"/>
	<path style="fill:#EEF3F7;" d="M280.456,163.948c-1.331,1.672-3.043,2.697-5.14,2.697H233.68c-2.084,0-3.766-1.122-5.06-2.932
		c0.364-2.765,1.054-5.252,2.064-7.033c1.224,2.414,2.93,3.977,5.137,3.977h37.377c2.088,0,3.753-1.259,4.994-3.266
		c1.074,1.736,1.827,4.033,2.267,6.557H280.456z"/>
	<path style="fill:#EEF3F7;" d="M280.456,187.894c-1.331,1.672-3.043,2.697-5.14,2.697H233.68c-2.084,0-3.766-1.12-5.06-2.932
		c0.364-2.765,1.054-5.252,2.064-7.033c1.224,2.414,2.93,3.977,5.137,3.977h37.377c2.088,0,3.753-1.259,4.994-3.266
		c1.074,1.736,1.827,4.033,2.267,6.557H280.456z"/>
	<path style="fill:#EEF3F7;" d="M280.456,211.841c-1.331,1.672-3.043,2.697-5.14,2.697H233.68c-2.084,0-3.766-1.122-5.06-2.932
		c0.364-2.765,1.054-5.252,2.064-7.033c1.224,2.414,2.93,3.977,5.137,3.977h37.377c2.088,0,3.753-1.259,4.994-3.266
		c1.074,1.736,1.827,4.033,2.267,6.557H280.456z"/>
	<path style="fill:#EEF3F7;" d="M335.448,300.024c-3.335,4.648-8.211,5.904-17.128,0.25c-12.885-8.167-49.527-18.732-53.765-39.412
		H251.39c-4.238,20.68-40.88,31.245-53.765,39.412c-8.917,5.656-13.791,4.398-17.125-0.25c2.739-2.361,8.158-2.185,12.914-3.647
		c8.109-2.496,48.808-25.731,52.55-31.031c3.742-5.303,1.716-21.052,1.716-21.052c2.496,2.339,4.05,11.463,4.05,11.463l6.242,0.075
		l6.242-0.075c0,0,1.557-9.123,4.05-11.463c0,0-2.026,15.751,1.716,21.052c3.742,5.303,44.441,28.537,52.55,31.031
		c4.756,1.462,10.175,1.283,12.914,3.647L335.448,300.024L335.448,300.024z"/>
</g>
<path style="fill:#FAD24D;" d="M219.64,182.493c0,0-0.201-0.622-0.637-1.603c-1.825-4.108-7.794-14.491-20.441-11.5
	c-15.667,3.702-94.14,47.849-110.948,80.604c-16.807,32.757-12.25,65.656-12.25,65.656s-29.916,47.57-29.916,110.803
	c0,63.235,14.241,70.639,23.927,75.768c9.684,5.129,36.46-0.569,58.108-10.824c21.648-10.255,22.787-11.395,22.787-11.395
	c23.515,11.399,64.286,8.596,58.96-23.351c0,0,25.636-25.067,27.915-47.57c2.278-22.5-6.55-48.708-6.55-48.708
	s15.946-16.799,15.946-43.859c0-27.06-22.5-23.643-27.913-65.797c-5.412-42.157,5.979-56.398,1.016-68.226L219.64,182.493z"/>
<path style="fill:#EDB937;" d="M150.433,480.082c23.539,11.309,64.111,8.446,58.797-23.429c0,0,25.636-25.067,27.915-47.57
	c2.278-22.5-6.55-48.708-6.55-48.708s15.946-16.799,15.946-43.859c0-5.49-0.926-9.728-2.447-13.344l-1.127,1.543
	c1.986,23.336-7.792,44.567-20.271,50.838c11.156,42.051,9.996,62.767-21.519,93.56c0,0,0.313,26.511-16.53,30.566
	s-36.825-3.878-36.825-3.878l2.615,4.282L150.433,480.082z"/>
<path style="fill:#FAD24D;" d="M292.358,182.493c0,0,0.201-0.622,0.637-1.603c1.825-4.108,7.794-14.491,20.441-11.5
	c15.667,3.702,94.14,47.849,110.948,80.604c16.807,32.757,12.25,65.656,12.25,65.656s29.915,47.57,29.915,110.802
	c0,63.235-14.241,70.639-23.927,75.768c-9.684,5.129-36.46-0.569-58.108-10.824c-21.648-10.255-22.787-11.395-22.787-11.395
	s-37.599,18.229-54.12-4.557c0,0-7.119-5.12-4.84-18.794c0,0-25.636-25.067-27.915-47.57c-2.278-22.5,6.55-48.708,6.55-48.708
	s-15.946-16.799-15.946-43.859c0-27.06,22.5-23.643,27.913-65.797c5.412-42.156-5.979-56.398-1.016-68.226L292.358,182.493z"/>
<g>
	<path style="fill:#EDB937;" d="M150.269,480.006c-11.955-9.177-53.97-7.768-73.921,1.495c-8.462,3.927-13.253,10.235-14.733,15.667
		c2.675,2.368,5.358,3.782,7.759,5.053c9.684,5.129,36.46-0.569,58.108-10.824c21.648-10.255,22.787-11.395,22.787-11.395V480.006z"
		/>
	<path style="fill:#EDB937;" d="M361.731,480.006c11.955-9.177,53.97-7.768,73.921,1.495c8.462,3.927,13.253,10.235,14.733,15.667
		c-2.675,2.368-5.358,3.782-7.759,5.053c-9.684,5.129-36.46-0.569-58.108-10.824c-21.648-10.255-22.787-11.395-22.787-11.395
		V480.006z"/>
</g>
<path style="fill:#EEF3F7;" d="M280.126,42.598c-1.054,1.023-2.361,1.876-3.944,2.471c-10.972,4.121-32.071,4.121-43.043,0
	c-1.74-0.653-3.142-1.616-4.249-2.774c0.31-1.638,0.748-3.135,1.307-4.385c0.849,0.644,1.825,1.191,2.941,1.61
	c10.972,4.121,32.071,4.121,43.043,0c0.877-0.33,1.672-0.739,2.381-1.213c0.66,1.237,1.182,2.699,1.561,4.295L280.126,42.598z"/>
<path style="fill:#FEFEFE;" d="M231.93,24.161c-5.823,0.994-7.179,13.419,2.516,16.662c10.301,3.446,30.107,3.446,40.408,0
	c9.695-3.244,8.339-15.667,2.516-16.662C267.668,30.226,241.58,31.152,231.93,24.161z"/>
<g>
	<path style="fill:#EDB937;" d="M155.236,209.54c-0.322-0.56-0.128-1.281,0.432-1.603c0.56-0.321,1.281-0.128,1.603,0.432
		c0.022,0.04,7.852,13.498,0.241,19.429c1.49,4.227,7.527,22.979,0.677,31.642c7.239,4.908,12.343,12.16,11.05,22.862
		c7.119-2.363,14.927-5.512,22.229-8.457c4.522-1.823,8.855-3.572,12.773-5.027l0.097-0.04c9.23-3.426,16.027-5.018,17.268-1.674
		c0.228,0.611-0.084,1.289-0.695,1.517c-0.611,0.228-1.289-0.084-1.517-0.695c-0.582-1.57-6.306,0.121-14.237,3.063l-0.097,0.031
		c-3.826,1.422-8.176,3.177-12.717,5.009l-3.001,1.211l0.015,0.044c6.337,19.98-9.236,32.319-25.369,45.096l-0.668,0.529
		c8.444,20.745,38.615,9.792,45.156,7.13c-5.697-10.166,7.228-19.702,7.265-19.731c0.518-0.388,1.255-0.284,1.645,0.234
		c0.388,0.518,0.284,1.255-0.234,1.645c-16.818,12.759-4.101,28.387,17.884,19.489c0.602-0.241,1.287,0.053,1.528,0.655
		c0.241,0.602-0.053,1.287-0.655,1.528c-0.053,0.022-18.293,7.441-26.07-1.836c-5.68,2.365-38.598,14.923-48.429-7.596
		c-5.164,4.114-10.266,8.321-14.561,12.879c-16.137,17.125,3.266,51.917,6.643,57.65c4.491-1.528,24.134-7.329,28.413,6.37
		c3.233-0.352,6.185,0.038,8.756,0.377c4.372,0.578,7.441,0.983,8.092-3.9c0.084-0.642,0.675-1.096,1.316-1.012
		c0.642,0.084,1.096,0.675,1.012,1.316c-0.961,7.214-4.985,6.683-10.724,5.924c-2.934-0.386-6.227-0.776-9.154-0.243
		c-7.662,1.237,1.799,12.08,1.825,12.111c0.423,0.489,0.37,1.233-0.122,1.658c-0.489,0.423-1.233,0.37-1.658-0.121
		c-0.031-0.038-11.357-13-1.678-15.692c-3.909-11.3-21.714-5.812-25.479-4.509c-2.558,31.589,6.335,49.379,8.253,52.804
		c0.23-0.015,0.452-0.022,0.671-0.022c4.763,0,9.502,2.932,13.138,6.716c2.892,3.01,6.694,8.497,6.694,12.947
		c0,0.651-0.529,1.18-1.18,1.18c-0.651,0-1.18-0.529-1.18-1.18c0-3.839-3.572-8.76-6.032-11.318
		c-3.244-3.373-7.387-5.988-11.444-5.988c-0.383,0-0.748,0.02-1.087,0.06l-0.106,0.013c-8.383,1.114-6.138,12.929-6.134,12.963
		c0.119,0.637-0.299,1.253-0.939,1.371c-0.637,0.119-1.253-0.299-1.371-0.939c-0.007-0.038-2.434-12.81,6.524-15.388
		c-2.644-5.047-10.685-23.247-8.129-53.79c-2.287-3.799-22.899-39.237-8.451-58.794c-6.927,0.809-24.828,4.932-24,25.955
		c0.452-0.066,0.913-0.104,1.384-0.099c1.294,0.011,2.648,0.308,4.022,0.994c1.204,0.6,2.438,1.506,3.678,2.79
		c0.45,0.467,0.434,1.213-0.033,1.663c-0.467,0.45-1.213,0.434-1.663-0.033c-1.034-1.069-2.051-1.819-3.032-2.308
		c-1.045-0.523-2.051-0.748-2.992-0.757c-0.693-0.007-1.36,0.099-2.004,0.286c-0.075,0.031-0.155,0.055-0.236,0.073
		c-4.119,1.334-7.046,5.946-7.058,5.962c-0.352,0.542-1.083,0.697-1.625,0.346c-0.542-0.352-0.697-1.083-0.346-1.625
		c0.011-0.015,3.018-4.761,7.578-6.637c-1.457-26.816,24.5-28.967,28.469-29.139c5.195-5.439,11.176-10.133,17.066-14.801
		c15.445-12.235,30.359-24.048,24.613-42.421c-6.169,2.465-12.502,4.912-18.366,6.802c-0.219,0.492-0.757,0.784-1.305,0.675
		c-0.137-0.027-0.262-0.077-0.377-0.144c-6.218,1.916-11.823,3.124-16.036,2.95c-14.786-0.615-27.7,0.45-37.16,5.257
		c-9.298,4.723-15.302,13.158-16.51,27.348c-1.285,15.118-8.392,25.054-15.145,31.203c12.263,17.07,3.393,44.708,1.184,50.852
		c3.596,1.076,13.388,4.969,14.343,15.676c0.055,0.644-0.423,1.215-1.067,1.27c-0.644,0.055-1.215-0.423-1.27-1.067
		c-0.972-10.894-12.746-13.69-13.738-13.906l-0.027-0.004h-0.002l-0.064-0.013c-1.678-0.275-3.241-0.197-4.677,0.19
		c-2.855,0.768-5.263,2.768-7.139,5.622c-1.944,2.956-3.329,6.822-4.075,11.212c-1.129,6.63-0.793,14.413,1.255,22.035
		c0.168,0.626-0.208,1.275-0.833,1.442c-0.626,0.168-1.275-0.208-1.442-0.833c-2.137-7.948-2.48-16.085-1.298-23.03
		c0.798-4.701,2.306-8.879,4.434-12.113c2.194-3.335,5.053-5.682,8.493-6.608c1.493-0.399,3.089-0.531,4.78-0.352
		c1.891-5.155,11.002-32.35-0.637-48.819c-4.608,3.808-8.782,5.848-10.469,6.59c0.106,6.271-5.611,9.609-5.629,9.617
		c-0.565,0.322-1.285,0.126-1.607-0.436c-0.322-0.565-0.126-1.285,0.436-1.607c0.013-0.007,4.921-2.87,4.412-8.169l-0.004-0.029
		l-0.007-0.062c-0.498-4.593-5.042-3.153-5.053-3.151c-0.624,0.177-1.278-0.186-1.455-0.811c-0.177-0.624,0.186-1.279,0.811-1.455
		c0.018-0.004,6.216-1.973,7.761,3.671c14.466-6.756,24.024-21.121,25.384-37.105c1.285-15.127,7.761-24.157,17.8-29.256
		c9.874-5.016,23.16-6.134,38.311-5.505c4.01,0.166,9.478-1.041,15.592-2.948c3.567-22.414-26.136-30.153-42.258-31.408
		c1.387,11.258-16.964,16.684-17.017,16.699c-0.62,0.188-1.277-0.163-1.464-0.782s0.163-1.276,0.782-1.464
		c0.051-0.015,17.912-5.307,15.118-15.401l-0.004-0.011l-0.004-0.018c-2.842-10.177-13.013-8.484-13.039-8.482
		c-0.642,0.095-1.242-0.35-1.336-0.994c-0.095-0.642,0.35-1.242,0.994-1.336c0.031-0.004,11.697-1.944,15.403,9.389
		c3.833,0.257,20.249,1.747,32.275,8.879c6.16-7.219,0.946-24.227-0.728-29.088c-7.794,4.331-13.32,2.19-13.335,2.183
		c-0.611-0.219-0.93-0.893-0.713-1.506c0.219-0.611,0.893-0.93,1.506-0.713c0.013,0.004,5.071,1.975,12.502-2.668l0.073-0.046
		c6.938-4.403-0.243-16.765-0.262-16.801v0.004H155.236z"/>
	<path style="fill:#EDB937;" d="M357.004,209.54c0.322-0.56,0.128-1.281-0.432-1.603c-0.56-0.321-1.281-0.128-1.603,0.432
		c-0.022,0.04-7.852,13.498-0.241,19.429c-1.49,4.227-7.527,22.979-0.677,31.642c-7.239,4.908-12.343,12.16-11.05,22.862
		c-7.119-2.363-14.927-5.512-22.23-8.457c-4.522-1.823-8.855-3.572-12.773-5.027l-0.097-0.04c-9.23-3.426-16.027-5.018-17.268-1.674
		c-0.228,0.611,0.084,1.289,0.695,1.517c0.611,0.228,1.289-0.084,1.517-0.695c0.582-1.57,6.306,0.121,14.237,3.063l0.097,0.031
		c3.826,1.422,8.176,3.177,12.717,5.009l3.001,1.211l-0.015,0.044c-6.337,19.98,9.236,32.319,25.369,45.096l0.668,0.529
		c-8.444,20.745-38.615,9.792-45.156,7.13c5.697-10.166-7.228-19.702-7.265-19.731c-0.518-0.388-1.255-0.284-1.645,0.234
		c-0.388,0.518-0.284,1.255,0.234,1.645c16.818,12.759,4.101,28.387-17.883,19.489c-0.602-0.241-1.287,0.053-1.528,0.655
		s0.053,1.287,0.655,1.528c0.053,0.022,18.293,7.441,26.07-1.836c5.68,2.365,38.598,14.923,48.429-7.596
		c5.164,4.114,10.266,8.321,14.561,12.879c16.137,17.125-3.266,51.917-6.643,57.65c-4.491-1.528-24.134-7.329-28.413,6.37
		c-3.233-0.352-6.185,0.038-8.756,0.377c-4.372,0.578-7.441,0.983-8.092-3.9c-0.084-0.642-0.675-1.096-1.316-1.012
		c-0.642,0.084-1.096,0.675-1.012,1.316c0.961,7.214,4.985,6.683,10.724,5.924c2.934-0.386,6.227-0.776,9.154-0.243
		c7.662,1.237-1.799,12.08-1.825,12.111c-0.423,0.489-0.37,1.233,0.122,1.658c0.489,0.423,1.233,0.37,1.658-0.121
		c0.031-0.038,11.357-13,1.678-15.692c3.909-11.3,21.714-5.812,25.479-4.509c2.558,31.589-6.335,49.379-8.253,52.804
		c-0.23-0.015-0.452-0.022-0.671-0.022c-4.763,0-9.502,2.932-13.138,6.716c-2.892,3.01-6.694,8.497-6.694,12.947
		c0,0.651,0.529,1.18,1.18,1.18c0.651,0,1.18-0.529,1.18-1.18c0-3.839,3.572-8.76,6.032-11.318
		c3.244-3.373,7.387-5.988,11.444-5.988c0.383,0,0.748,0.02,1.087,0.06l0.106,0.013c8.383,1.114,6.138,12.929,6.134,12.963
		c-0.119,0.637,0.299,1.253,0.939,1.371c0.637,0.119,1.253-0.299,1.371-0.939c0.007-0.038,2.434-12.81-6.524-15.388
		c2.644-5.047,10.685-23.247,8.129-53.79c2.287-3.799,22.899-39.237,8.451-58.794c6.927,0.809,24.828,4.932,24,25.955
		c-0.452-0.066-0.913-0.104-1.384-0.099c-1.294,0.011-2.648,0.308-4.022,0.994c-1.204,0.6-2.438,1.506-3.678,2.79
		c-0.45,0.467-0.434,1.213,0.033,1.663c0.467,0.45,1.213,0.434,1.663-0.033c1.034-1.069,2.051-1.819,3.032-2.308
		c1.045-0.523,2.051-0.748,2.992-0.757c0.693-0.007,1.36,0.099,2.004,0.286c0.075,0.031,0.155,0.055,0.236,0.073
		c4.119,1.334,7.046,5.946,7.058,5.962c0.352,0.542,1.083,0.697,1.625,0.346c0.542-0.352,0.697-1.083,0.346-1.625
		c-0.011-0.015-3.018-4.761-7.578-6.637c1.457-26.816-24.5-28.967-28.469-29.139c-5.195-5.439-11.176-10.133-17.066-14.801
		c-15.445-12.235-30.359-24.048-24.613-42.421c6.169,2.465,12.502,4.912,18.366,6.802c0.219,0.492,0.757,0.784,1.305,0.675
		c0.137-0.027,0.262-0.077,0.377-0.144c6.218,1.916,11.823,3.124,16.036,2.95c14.786-0.615,27.7,0.45,37.16,5.257
		c9.298,4.723,15.302,13.158,16.51,27.348c1.285,15.118,8.392,25.054,15.145,31.203c-12.263,17.07-3.393,44.708-1.184,50.852
		c-3.596,1.076-13.388,4.969-14.343,15.676c-0.055,0.644,0.423,1.215,1.067,1.27c0.644,0.055,1.215-0.423,1.27-1.067
		c0.972-10.894,12.746-13.69,13.738-13.906l0.027-0.004h0.002l0.064-0.013c1.678-0.275,3.241-0.197,4.677,0.19
		c2.855,0.768,5.263,2.768,7.139,5.622c1.944,2.956,3.329,6.822,4.075,11.212c1.129,6.63,0.793,14.413-1.255,22.035
		c-0.168,0.626,0.208,1.275,0.833,1.442c0.626,0.168,1.275-0.208,1.442-0.833c2.137-7.948,2.48-16.085,1.298-23.03
		c-0.798-4.701-2.306-8.879-4.434-12.113c-2.194-3.335-5.053-5.682-8.493-6.608c-1.493-0.399-3.089-0.531-4.78-0.352
		c-1.891-5.155-11.002-32.35,0.637-48.819c4.608,3.808,8.782,5.848,10.469,6.59c-0.106,6.271,5.611,9.609,5.629,9.617
		c0.565,0.322,1.285,0.126,1.608-0.436c0.322-0.565,0.126-1.285-0.436-1.607c-0.013-0.007-4.921-2.87-4.412-8.169l0.004-0.029
		l0.007-0.062c0.498-4.593,5.042-3.153,5.053-3.151c0.624,0.177,1.279-0.186,1.455-0.811c0.177-0.624-0.186-1.279-0.811-1.455
		c-0.018-0.004-6.216-1.973-7.761,3.671c-14.466-6.756-24.024-21.121-25.384-37.105c-1.285-15.127-7.761-24.157-17.8-29.256
		c-9.874-5.016-23.16-6.134-38.311-5.505c-4.01,0.166-9.478-1.041-15.592-2.948c-3.567-22.414,26.136-30.153,42.258-31.408
		c-1.387,11.258,16.964,16.684,17.017,16.699c0.62,0.188,1.277-0.163,1.464-0.782s-0.163-1.276-0.782-1.464
		c-0.051-0.015-17.912-5.307-15.118-15.401l0.004-0.011l0.004-0.018c2.842-10.177,13.013-8.484,13.039-8.482
		c0.642,0.095,1.242-0.35,1.336-0.994c0.095-0.642-0.35-1.242-0.994-1.336c-0.031-0.004-11.697-1.944-15.403,9.389
		c-3.832,0.257-20.249,1.747-32.275,8.879c-6.16-7.219-0.946-24.227,0.728-29.088c7.794,4.331,13.32,2.19,13.335,2.183
		c0.611-0.219,0.93-0.893,0.713-1.506c-0.219-0.611-0.893-0.93-1.506-0.713c-0.013,0.004-5.071,1.975-12.502-2.668l-0.073-0.046
		c-6.938-4.403,0.243-16.765,0.262-16.801v0.004H357.004z"/>
	<path style="fill:#EDB937;" d="M292.358,182.493c0,0,11.022-13.291,28.489-5.804c17.465,7.485,84.503,46.857,97.697,77.891
		c13.196,31.033,11.304,60.896,11.304,60.896s44.302,102.735,31.415,162.331c3.164-10.853,5.288-26.939,5.288-51.354
		c0-63.232-29.915-110.804-29.915-110.804s4.555-32.899-12.25-65.654c-16.805-32.755-95.281-76.904-110.948-80.607
		c-12.649-2.99-18.616,7.396-20.443,11.5c-0.434,0.979-0.637,1.603-0.637,1.603h0.001V182.493z"/>
</g>
<path style="fill:#FFF985;" d="M203.648,168.875c-18.076,5.733-59.149,29.62-79.991,45.841
	c-31.832,24.772-48.593,54.065-43.402,98.523c0,0-30.862,58.444-34.806,113.214c0-63.232,29.915-110.802,29.915-110.802
	c-3.014-21.761,3.832-55.646,17.259-73.516c0.401-0.534,0.813-1.069,1.242-1.61c21.834-27.583,79.368-65.161,104.697-71.135
	C200.396,168.957,202.089,168.808,203.648,168.875z"/>
</svg>