<?xml version="1.0" encoding="UTF-8" standalone="no"?>
<!-- Uploaded to: SVG Repo, www.svgrepo.com, Generator: SVG Repo Mixer Tools -->
<svg width="800px" height="800px" viewBox="0 0 64 64" version="1.1" xmlns="http://www.w3.org/2000/svg" xmlns:xlink="http://www.w3.org/1999/xlink">
    
    <title>cha-rect-swear</title>
    <desc>Created with Sketch.</desc>
    <defs>

</defs>
    <g id="General" stroke="none" stroke-width="1" fill="none" fill-rule="evenodd">
        <g id="SLICES-64px" transform="translate(-180.000000, -100.000000)">

</g>
        <g id="ICONS" transform="translate(-175.000000, -95.000000)">
            <g id="cha-rect-swear" transform="translate(180.000000, 104.000000)">
                <path d="M24.1602,40 L51.0002,40 C52.6572,40 54.0002,38.657 54.0002,37 L54.0002,3 C54.0002,1.343 52.6572,0 51.0002,0 L3.0002,0 C1.3432,0 0.0002,1.343 0.0002,3 L0.0002,37 C0.0002,38.657 1.3432,40 3.0002,40 L10.0002,40 C11.1042,40 12.0002,40.896 12.0002,42 L12.0002,50 L22.1412,40.78 C22.6942,40.278 23.4132,40 24.1602,40" id="Fill-383" fill="#FFFFFF">

</path>
                <path d="M24.1602,40 L51.0002,40 C52.6572,40 54.0002,38.657 54.0002,37 L54.0002,3 C54.0002,1.343 52.6572,0 51.0002,0 L3.0002,0 C1.3432,0 0.0002,1.343 0.0002,3 L0.0002,37 C0.0002,38.657 1.3432,40 3.0002,40 L10.0002,40 C11.1042,40 12.0002,40.896 12.0002,42 L12.0002,50 L22.1412,40.78 C22.6942,40.278 23.4132,40 24.1602,40 Z" id="Stroke-384" stroke="#1E69A0" stroke-width="2" stroke-linecap="round" stroke-linejoin="round">

</path>
                <path d="M8,26 L12,14" id="Stroke-385" stroke="#4BAADC" stroke-width="2" stroke-linecap="round" stroke-linejoin="round">

</path>
                <path d="M12,26 L16,14" id="Stroke-386" stroke="#4BAADC" stroke-width="2" stroke-linecap="round" stroke-linejoin="round">

</path>
                <path d="M6,22 L17,22" id="Stroke-387" stroke="#4BAADC" stroke-width="2" stroke-linecap="round" stroke-linejoin="round">

</path>
                <path d="M7,18 L18,18" id="Stroke-388" stroke="#4BAADC" stroke-width="2" stroke-linecap="round" stroke-linejoin="round">

</path>
                <path d="M42,14 L42,20" id="Stroke-389" stroke="#4BAADC" stroke-width="2" stroke-linecap="round" stroke-linejoin="round">

</path>
                <polyline id="Stroke-390" stroke="#4BAADC" stroke-width="2" stroke-linecap="round" stroke-linejoin="round" points="38 26 42 20 46 26">

</polyline>
                <polyline id="Stroke-391" stroke="#4BAADC" stroke-width="2" stroke-linecap="round" stroke-linejoin="round" points="36 18 42 20 48 18">

</polyline>
                <path d="M30,20 C30,21.104 29.104,22 28,22 C26.896,22 26,21.104 26,20 C26,18.896 26.896,18 28,18 C29.104,18 30,18.896 30,20 Z" id="Stroke-392" stroke="#4BAADC" stroke-width="2" stroke-linecap="round" stroke-linejoin="round">

</path>
                <path d="M28,22 C30.209,22 32,20.209 32,18 C32,15.791 30.209,14 28,14 C24.687,14 22,16.687 22,20 C22,23.313 24.375,26 28,26 C29.388,26 30.739,25.414 31.878,24.69" id="Stroke-393" stroke="#4BAADC" stroke-width="2" stroke-linecap="round" stroke-linejoin="round">

</path>
            </g>
        </g>
    </g>
</svg>