<?xml version="1.0" encoding="utf-8"?>
<!-- Uploaded to: SVG Repo, www.svgrepo.com, Generator: SVG Repo Mixer Tools -->
<svg width="800px" height="800px" viewBox="-55.15 0 354.163 354.163" xmlns="http://www.w3.org/2000/svg"><defs><style>.a{fill:#fedeb3;}.b{fill:#f9bfbc;}.c{fill:#ea918f;}.d{fill:#fdece1;}.e{fill:#f9cbac;}.f{fill:#211715;}.g{fill:#febe69;}.h{fill:#f2635f;}.i{fill:#3d8dcc;}</style></defs><path class="a" d="M241.932,260.163v94h-240v-94Z"/><path class="b" d="M199.187,334.78H163.175a5,5,0,0,1-4.993-5v-12a5,5,0,0,1,5-5h36a5,5,0,0,1,5,5v12A5,5,0,0,1,199.187,334.78Z"/><path class="b" d="M139.937,334.78H103.925a5,5,0,0,1-4.993-5v-12a5,5,0,0,1,5-5h36a5,5,0,0,1,5,5v12A5,5,0,0,1,139.937,334.78Z"/><path class="b" d="M80.687,334.78H44.675a5,5,0,0,1-4.993-5v-12a5,5,0,0,1,5-5h36a5,5,0,0,1,5,5v12A5,5,0,0,1,80.687,334.78Z"/><path class="b" d="M51.84,301.78H14.022a4.37,4.37,0,0,1-4.09-4.609V284.389a4.376,4.376,0,0,1,4.1-4.609H51.835a4.376,4.376,0,0,1,4.1,4.609v12.782A4.372,4.372,0,0,1,51.84,301.78Z"/><path class="b" d="M228.937,301.78H192.925a5,5,0,0,1-4.993-5v-12a5,5,0,0,1,5-5h36a5,5,0,0,1,5,5v12A5,5,0,0,1,228.937,301.78Z"/><path class="b" d="M169.6,301.78H133.592a4.994,4.994,0,0,1-4.993-5v-12a5,5,0,0,1,5-5h36a5,5,0,0,1,5,5v12A5,5,0,0,1,169.6,301.78Z"/><path class="b" d="M110.27,301.78H74.258a5,5,0,0,1-4.993-5v-12a5,5,0,0,1,5-5h36a5,5,0,0,1,5,5v12A5,5,0,0,1,110.27,301.78Z"/><path class="c" d="M62.682,320.269a3.432,3.432,0,0,0-3.5,3.478,3.375,3.375,0,0,0,3.5,3.544,3.34,3.34,0,0,0,3.5-3.544A3.429,3.429,0,0,0,62.682,320.269Z"/><path class="c" d="M121.932,320.269a3.432,3.432,0,0,0-3.5,3.478,3.375,3.375,0,0,0,3.5,3.544,3.34,3.34,0,0,0,3.5-3.544A3.429,3.429,0,0,0,121.932,320.269Z"/><path class="c" d="M181.182,320.269a3.432,3.432,0,0,0-3.5,3.478,3.375,3.375,0,0,0,3.5,3.544,3.34,3.34,0,0,0,3.5-3.544A3.429,3.429,0,0,0,181.182,320.269Z"/><path class="c" d="M210.932,287.269a3.432,3.432,0,0,0-3.5,3.478,3.375,3.375,0,0,0,3.5,3.544,3.34,3.34,0,0,0,3.5-3.544A3.429,3.429,0,0,0,210.932,287.269Z"/><path class="c" d="M151.6,287.269a3.431,3.431,0,0,0-3.5,3.478,3.375,3.375,0,0,0,3.5,3.544,3.34,3.34,0,0,0,3.5-3.544A3.429,3.429,0,0,0,151.6,287.269Z"/><path class="c" d="M92.265,287.269a3.432,3.432,0,0,0-3.5,3.478,3.375,3.375,0,0,0,3.5,3.544,3.34,3.34,0,0,0,3.5-3.544A3.429,3.429,0,0,0,92.265,287.269Z"/><path class="c" d="M32.932,287.269a3.432,3.432,0,0,0-3.5,3.478,3.375,3.375,0,0,0,3.5,3.544,3.34,3.34,0,0,0,3.5-3.544A3.429,3.429,0,0,0,32.932,287.269Z"/><path class="d" d="M241.932,166.163v94h-240v-94Z"/><path class="e" d="M92.347,199.51a49.139,49.139,0,0,1-14.981-1.466c-1.641-.492-3.7-2.305-3.754-4.222a2.574,2.574,0,0,1,2.581-2.885,130.515,130.515,0,0,0,15.993.908,120.3,120.3,0,0,0,16.546-1.944,2.343,2.343,0,0,1,2.647,2.533c.058,1.916-1.636,3.8-4.065,4.833C104,198.673,98.692,199.319,92.347,199.51Z"/><path class="e" d="M66.348,248.533a49.147,49.147,0,0,1-15.05.3c-1.687-.3-3.941-1.856-4.223-3.753a2.574,2.574,0,0,1,2.225-3.167,130.519,130.519,0,0,0,15.989-.974,120.2,120.2,0,0,0,16.2-3.87,2.343,2.343,0,0,1,2.925,2.205c.282,1.9-1.179,3.967-3.47,5.276C77.826,246.336,72.627,247.6,66.348,248.533Z"/><path class="e" d="M156.827,243.3a49.187,49.187,0,0,1-15.033.779c-1.7-.243-4-1.73-4.34-3.617a2.573,2.573,0,0,1,2.123-3.236,130.694,130.694,0,0,0,15.95-1.482,120.477,120.477,0,0,0,16.072-4.384,2.342,2.342,0,0,1,3,2.11c.342,1.887-1.053,4-3.3,5.384C168.229,240.736,163.072,242.165,156.827,243.3Z"/><path class="e" d="M27.113,231.168a49.163,49.163,0,0,1-14.219-4.942c-1.479-.864-3.052-3.109-2.658-4.986a2.575,2.575,0,0,1,3.186-2.2,130.546,130.546,0,0,0,15.333,4.637,120.275,120.275,0,0,0,16.54,2,2.343,2.343,0,0,1,1.979,3.083c-.394,1.877-2.483,3.311-5.086,3.744C38.64,233.091,33.325,232.472,27.113,231.168Z"/><path class="e" d="M216.205,210.281a49.188,49.188,0,0,1-15.05.258c-1.687-.3-3.936-1.867-4.213-3.765a2.575,2.575,0,0,1,2.234-3.161,130.589,130.589,0,0,0,15.992-.928,120.42,120.42,0,0,0,16.215-3.825,2.342,2.342,0,0,1,2.919,2.213c.277,1.9-1.19,3.963-3.485,5.266C227.69,208.116,222.487,209.365,216.205,210.281Z"/><path class="e" d="M210.414,246.606a49.179,49.179,0,0,1-13.979-5.583c-1.439-.93-2.907-3.244-2.429-5.1a2.574,2.574,0,0,1,3.283-2.051A130.576,130.576,0,0,0,212.4,239.2a120.445,120.445,0,0,0,16.433,2.745,2.341,2.341,0,0,1,1.836,3.169c-.479,1.857-2.631,3.195-5.251,3.509C221.842,249.051,216.561,248.19,210.414,246.606Z"/><path class="e" d="M106.393,232.3A49.154,49.154,0,0,1,92.11,227.54c-1.49-.845-3.092-3.069-2.722-4.95a2.574,2.574,0,0,1,3.157-2.24,130.58,130.58,0,0,0,15.392,4.436,120.5,120.5,0,0,0,16.565,1.778,2.342,2.342,0,0,1,2.018,3.057c-.369,1.882-2.439,3.343-5.036,3.81C117.944,234.068,112.622,233.518,106.393,232.3Z"/><path class="e" d="M31.815,192.232a49.147,49.147,0,0,1-15.053-.113c-1.678-.343-3.888-1.963-4.118-3.867a2.574,2.574,0,0,1,2.311-3.105,130.6,130.6,0,0,0,16.01-.535,120.159,120.159,0,0,0,16.3-3.424,2.343,2.343,0,0,1,2.864,2.285c.23,1.9-1.288,3.932-3.613,5.179C43.349,190.35,38.117,191.471,31.815,192.232Z"/><path class="e" d="M153.73,190.861a49.172,49.172,0,0,1-15.032-.791c-1.661-.418-3.8-2.137-3.94-4.049a2.575,2.575,0,0,1,2.449-3,130.474,130.474,0,0,0,16.017.187,120.207,120.207,0,0,0,16.442-2.686,2.342,2.342,0,0,1,2.758,2.411c.144,1.912-1.463,3.871-3.843,5.011C165.337,189.5,160.06,190.384,153.73,190.861Z"/><path class="f" d="M1.932,262.163h240c2.574,0,2.578-4,0-4h-240c-2.574,0-2.578,4,0,4Z"/><path class="g" d="M155.175,24.15a17.755,17.755,0,0,0-18.107,18c0,10.856,7.56,18.333,18.108,18.333,10.955,0,18.108-7.546,18.108-18.333A17.74,17.74,0,0,0,155.175,24.15Z"/><path class="f" d="M153.23,2v8.926a2,2,0,0,0,4,0V2a2,2,0,0,0-4,0Z"/><path class="f" d="M157.23,82.668V73.742a2,2,0,1,0-4,0v8.926a2,2,0,0,0,4,0Z"/><path class="f" d="M114.9,44.335h8.927a2,2,0,0,0,0-4H114.9a2,2,0,0,0,0,4Z"/><path class="f" d="M195.563,40.335h-8.926a2,2,0,0,0,0,4h8.926a2,2,0,0,0,0-4Z"/><path class="f" d="M182.335,12.4l-6.311,6.312a2,2,0,1,0,2.828,2.828l6.312-6.312a2,2,0,1,0-2.829-2.828Z"/><path class="f" d="M128.124,72.269l6.312-6.312a2,2,0,1,0-2.829-2.828L125.3,69.441a2,2,0,0,0,2.828,2.828Z"/><path class="f" d="M125.3,15.229l6.311,6.312a2,2,0,1,0,2.829-2.828L128.124,12.4a2,2,0,0,0-2.828,2.828Z"/><path class="f" d="M185.164,69.441l-6.312-6.312a2,2,0,1,0-2.828,2.828l6.311,6.312a2,2,0,1,0,2.829-2.828Z"/><path class="f" d="M155.175,22.15a20.015,20.015,0,0,0-19.218,13.989c-2.394,7.778-.011,17.067,6.487,22.141A21.687,21.687,0,0,0,166.007,59.7c7.135-4.209,10.179-12.768,9.02-20.738-1.435-9.862-10.056-16.726-19.852-16.813-2.574-.023-2.577,3.977,0,4a15.911,15.911,0,0,1,15.359,11.027c1.914,6.209.273,13.78-4.9,17.949-5.031,4.055-13,4.456-18.607,1.408-5.944-3.23-8.758-10.184-7.806-16.757A15.975,15.975,0,0,1,155.175,26.15C157.748,26.127,157.754,22.127,155.175,22.15Z"/><path class="h" d="M135.178,204.96l-8.852,11.1h2.828l-8.852-11.1a2.012,2.012,0,0,0-2.828,0,2.049,2.049,0,0,0,0,2.829l8.852,11.1a2,2,0,0,0,2.828,0l8.853-11.1a2.063,2.063,0,0,0,0-2.829,2.016,2.016,0,0,0-2.829,0Z"/><path class="h" d="M129.74,217.471V98.456c0-2.574-4-2.578-4,0V217.471c0,2.574,4,2.578,4,0Z"/><path class="i" d="M193.346,140.138l-8.852-11.1a2,2,0,0,0-2.829,0l-8.852,11.1a2.061,2.061,0,0,0,0,2.828,2.013,2.013,0,0,0,2.828,0l8.853-11.1h-2.829l8.853,11.1a2.011,2.011,0,0,0,2.828,0,2.048,2.048,0,0,0,0-2.828Z"/><path class="i" d="M181.08,130.456v89.015c0,2.574,4,2.578,4,0V130.456c0-2.574-4-2.578-4,0Z"/><path class="i" d="M71.051,140.138l-8.852-11.1a2,2,0,0,0-2.829,0l-8.852,11.1a2.061,2.061,0,0,0,0,2.828,2.013,2.013,0,0,0,2.828,0l8.853-11.1H59.37l8.853,11.1a2.011,2.011,0,0,0,2.828,0,2.048,2.048,0,0,0,0-2.828Z"/><path class="i" d="M58.784,130.456v89.015c0,2.574,4,2.578,4,0V130.456c0-2.574-4-2.578-4,0Z"/><path class="f" d="M72.734,166.833a65.737,65.737,0,0,0,20.119-.3,2.014,2.014,0,0,0,1.4-2.46,2.048,2.048,0,0,0-2.46-1.4,59.382,59.382,0,0,1-17.992.3,2.067,2.067,0,0,0-2.46,1.4,2.014,2.014,0,0,0,1.4,2.46Z"/><path class="f" d="M99.012,163.055c5.88,3,12.347,4.037,18.882,4.329a2,2,0,1,0,0-4c-5.8-.259-11.636-1.116-16.863-3.783-2.288-1.168-4.315,2.282-2.019,3.454Z"/><path class="f" d="M140.4,166.917a83.442,83.442,0,0,0,25.508-.381,2.014,2.014,0,0,0,1.4-2.46,2.048,2.048,0,0,0-2.46-1.4,77.057,77.057,0,0,1-23.381.381,2.068,2.068,0,0,0-2.461,1.4,2.015,2.015,0,0,0,1.4,2.46Z"/><path class="f" d="M196.821,166.552c11.738,1.134,23.545,1.472,35.334,1.478,2.573,0,2.578-4,0-4-11.789-.006-23.6-.344-35.334-1.478a2.014,2.014,0,0,0-2,2,2.044,2.044,0,0,0,2,2Z"/><path class="f" d="M9.182,168.163c12.274,0,24.611.1,36.754-1.955a2.016,2.016,0,0,0,1.4-2.46,2.048,2.048,0,0,0-2.461-1.4c-11.772,1.989-23.792,1.813-35.69,1.812-2.574,0-2.578,4,0,4Z"/><path class="f" d="M98.261,57.016,96.93,62.021a1.077,1.077,0,0,0,.872,1.342l4.334.69a1.36,1.36,0,0,1,.468,2.519l-3.8,2.2a1.079,1.079,0,0,0-.332,1.567l2.7,3.717a1.287,1.287,0,0,1-1.373,2l-4.438-1.18a1.079,1.079,0,0,0-1.343.873l-.6,3.772a1.562,1.562,0,0,1-2.894.538l-1.916-3.3a1.078,1.078,0,0,0-1.566-.332l-4.192,3.04a1.079,1.079,0,0,1-1.676-1.151l1.332-5a1.08,1.08,0,0,0-.873-1.343l-4.5-.717a1.3,1.3,0,0,1-.447-2.405l3.946-2.288a1.078,1.078,0,0,0,.332-1.566L77.92,60.8a1.079,1.079,0,0,1,1.15-1.676l5.005,1.332a1.079,1.079,0,0,0,1.342-.873l.625-3.925a1.507,1.507,0,0,1,2.792-.519l1.993,3.439a1.078,1.078,0,0,0,1.566.332l4.193-3.04A1.078,1.078,0,0,1,98.261,57.016Z"/></svg>